<svg width="96" height="96" viewBox="0 0 96 96" fill="none" xmlns="http://www.w3.org/2000/svg">
<g clip-path="url(#clip0_29_1807)">
<rect width="96" height="96" fill="white"/>
<rect width="96" height="96" fill="#CCF88E"/>
<path d="M53.9889 28.3361C54.0417 27.9015 53.7303 27.5038 53.2948 27.459C49.7237 27.0851 46.1236 27.0982 42.5552 27.4933C42.1197 27.5407 41.8109 27.941 41.8663 28.3756L43.8643 44.0145C43.9197 44.449 44.3183 44.7572 44.7564 44.7124C46.9022 44.4938 49.0639 44.4859 51.2123 44.6913C51.6505 44.7335 52.0464 44.4253 52.0991 43.9881L53.9942 28.3387L53.9889 28.3361Z" fill="#274A34"/>
<path d="M82.3912 41.8864C82.6974 41.573 82.6921 41.0699 82.3701 40.7671C79.7571 38.3098 76.8855 36.1423 73.8054 34.2987C73.4279 34.0722 72.9423 34.2039 72.7206 34.5831L64.8104 48.2283C64.5913 48.6076 64.7206 49.0922 65.0954 49.3213C66.9351 50.4433 68.6586 51.7469 70.2422 53.2086C70.5642 53.5062 71.0683 53.501 71.3745 53.1849L82.3886 41.8837L82.3912 41.8864Z" fill="#274A34"/>
<path d="M23.1584 34.7465C22.9367 34.3672 22.4484 34.2408 22.0736 34.4699C19.0067 36.3346 16.1509 38.5205 13.5537 40.9962C13.237 41.2991 13.2317 41.8021 13.5405 42.1155L24.6312 53.343C24.94 53.6564 25.4441 53.659 25.7635 53.3588C27.3365 51.8866 29.0521 50.5723 30.8839 49.4372C31.256 49.2054 31.3853 48.7208 31.161 48.3416L23.1584 34.7491V34.7465Z" fill="#274A34"/>
<path fill-rule="evenodd" clip-rule="evenodd" d="M69.8437 62.2632C70.1947 62.7742 69.8173 63.451 69.197 63.451H26.7057C26.0855 63.451 25.708 62.7742 26.0591 62.2632C30.839 55.3077 38.8627 50.7461 47.9527 50.7461C57.0427 50.7461 65.0664 55.3077 69.8463 62.2632H69.8437Z" fill="#274A34"/>
</g>
<defs>
<clipPath id="clip0_29_1807">
<rect width="96" height="96" fill="white"/>
</clipPath>
</defs>
</svg>
